<?xml version="1.0" encoding="UTF-8"?>
<svg version="1.1" xmlns="http://www.w3.org/2000/svg" width="200" height="220">
<path d="M0 0 C3.0026748 1.51900019 5.06891191 3.23578533 7 6 C7.4921875 8.23828125 7.4921875 8.23828125 7.75 10.6875 C8.67434049 18.09349638 14.68364035 22.32373716 20 27 C20.99 26.34 21.98 25.68 23 25 C23.21265459 22.30147673 23.21265459 22.30147673 22.9375 19.25 C22.85674269 15.2786403 22.9126469 13.20382389 24.5 9.5 C28.69052831 5.30947169 33.12159477 2.82701786 39.125 2.5625 C45.78983245 3.31498108 49.62537883 6.00043295 54 11 C55.45318798 15.35956393 55.64236393 19.4481954 55 24 C53.60872387 26.70721241 51.97582093 28.63865304 50 31 C49.67 31.99 49.34 32.98 49 34 C49.78375 34.0825 50.5675 34.165 51.375 34.25 C54 35 54 35 55.13671875 36.6484375 C56.22471843 39.61212895 56.31628582 42.22343138 56.4375 45.375 C56.66940726 49.37985995 56.82334327 51.65977222 58.6875 55.25 C60.43463821 58.91067053 59.86491866 61.12271194 58.77734375 64.9453125 C57.62581508 67.98905159 56.83021622 69.30187027 54 71 C48.31367556 72.28928507 44.37950308 72.2150895 39 70 C36.63450124 70.94054984 36.63450124 70.94054984 35 73 C34.88527344 73.79664062 34.77054688 74.59328125 34.65234375 75.4140625 C33.61216152 79.53741962 30.82574588 80.67962598 27.3671875 82.83984375 C24.44028438 84.27431607 22.21354469 84.49439149 19 84 C19 84.99 19 85.98 19 87 C21.64496692 88.69277883 23.04994852 88.99903945 26.25 88.9375 C30.84673375 89.01411223 33.78509978 90.22530517 38 92 C38.125 94.375 38.125 94.375 38 97 C35.26423034 99.73576966 33.44099685 99.36098107 29.625 99.5625 C25.85732977 99.77087002 22.67797245 100.08050689 19 101 C18.01 106.28 17.02 111.56 16 117 C17.32 117.99 18.64 118.98 20 120 C20.33 119.67 20.66 119.34 21 119 C23.23046875 118.6015625 23.23046875 118.6015625 26 119 C28.01383519 120.75806342 29.61032261 122.35760458 31.3125 124.375 C31.76689453 124.88289063 32.22128906 125.39078125 32.68945312 125.9140625 C36 129.69754464 36 129.69754464 36 132 C45.13140374 127.79363578 52.13784488 121.4140031 56 112 C56.66 112 57.32 112 58 112 C60.81958454 118.37763171 61.46411379 123.62647652 61.375 130.5625 C61.38660156 131.46935547 61.39820313 132.37621094 61.41015625 133.31054688 C61.38551838 138.97315135 60.61083543 142.96481739 58 148 C56.02 147.67 54.04 147.34 52 147 C51.6596875 148.2065625 51.6596875 148.2065625 51.3125 149.4375 C49.92165561 153.21264907 48.1393239 156.48169573 46.12109375 159.94921875 C44.17580339 163.50767672 43.76576475 166.70142801 43.4375 170.6875 C43.35371094 171.68136719 43.26992187 172.67523438 43.18359375 173.69921875 C43.12300781 174.45847656 43.06242188 175.21773437 43 176 C39.7 176.33 36.4 176.66 33 177 C33.99 178.32 34.98 179.64 36 181 C36.38818359 183.16650391 36.38818359 183.16650391 36.3984375 185.4765625 C36.40230469 186.311875 36.40617188 187.1471875 36.41015625 188.0078125 C36.39275391 189.30332031 36.39275391 189.30332031 36.375 190.625 C36.38660156 191.49640625 36.39820313 192.3678125 36.41015625 193.265625 C36.40628906 194.09835938 36.40242187 194.93109375 36.3984375 195.7890625 C36.39505371 196.54912598 36.39166992 197.30918945 36.38818359 198.09228516 C36 200 36 200 33 202 C30.40625 202.30078125 30.40625 202.30078125 27.5 202.3125 C26.5409375 202.32925781 25.581875 202.34601563 24.59375 202.36328125 C22 202 22 202 20.23046875 200.9609375 C18.34921137 197.96287019 18.16334583 194.75980167 17.8125 191.3125 C17.73064453 190.61060547 17.64878906 189.90871094 17.56445312 189.18554688 C17.36470727 187.45833274 17.18080012 185.72929997 17 184 C16.34 184 15.68 184 15 184 C15 186.31 15 188.62 15 191 C5.25647371 195.33045613 -7.44704517 195.89265161 -17.625 192.5 C-18.73875 192.005 -19.8525 191.51 -21 191 C-21 190.34 -21 189.68 -21 189 C-19.49705948 188.04061307 -17.94499493 187.15770376 -16.375 186.3125 C-8.91955088 181.97401831 -4.98583667 176.51176911 -1 169 C1.51303805 169.43328242 2.71516561 169.6780133 4.4375 171.625 C5.93462536 173.24773546 5.93462536 173.24773546 8.25 173 C11.46566715 171.83066649 13.7698215 170.15577164 16.44921875 168.05859375 C18 167 18 167 20 167 C18.97949692 159.08567292 13.42077012 154.86035055 7.875 149.5625 C6.91942461 148.63203722 5.96498547 147.70040602 5.01171875 146.76757812 C2.6853839 144.49998911 0.34818623 142.24491688 -2 140 C-2.70850098 140.47123291 -3.41700195 140.94246582 -4.14697266 141.42797852 C-9.44907821 144.8900574 -14.37680575 147.89921202 -20.375 149.9375 C-21.51710938 150.33839844 -22.65921875 150.73929688 -23.8359375 151.15234375 C-26.74024728 151.93041193 -29.01769089 152.1843 -32 152 C-32.18175781 153.19496094 -32.18175781 153.19496094 -32.3671875 154.4140625 C-34.61271676 168.61271676 -34.61271676 168.61271676 -37 171 C-38.66617115 171.04063832 -40.33388095 171.042721 -42 171 C-44.02208442 166.11329598 -45.51198891 162.37588358 -45 157 C-44.67 156.34 -44.34 155.68 -44 155 C-44.66 155 -45.32 155 -46 155 C-46 154.01 -46 153.02 -46 152 C-47.2375 151.938125 -48.475 151.87625 -49.75 151.8125 C-59.75428713 150.67993919 -67.88717747 145.60122789 -76 140 C-79.00678942 142.88302972 -81.99668102 145.7822651 -84.97216797 148.69750977 C-85.98625853 149.68648303 -87.00479496 150.67091902 -88.02783203 151.65063477 C-89.49929277 153.06132089 -90.95389227 154.48765495 -92.40625 155.91796875 C-93.72592773 157.19837036 -93.72592773 157.19837036 -95.07226562 158.50463867 C-97.19886388 160.84121773 -97.19886388 160.84121773 -97.41503906 163.70288086 C-97.20813959 166.19119375 -97.20813959 166.19119375 -94.953125 167.8359375 C-94.06109375 168.34382812 -93.1690625 168.85171875 -92.25 169.375 C-91.36828125 169.89835938 -90.4865625 170.42171875 -89.578125 170.9609375 C-87.11389474 172.18896498 -87.11389474 172.18896498 -84.76953125 171.76171875 C-82.88876691 171.08142681 -82.88876691 171.08142681 -81.4375 169.4375 C-80.963125 168.963125 -80.48875 168.48875 -80 168 C-79.01 168 -78.02 168 -77 168 C-76.443125 169.19625 -75.88625 170.3925 -75.3125 171.625 C-71.51290624 179.10586107 -66.9838904 182.96518637 -60.01171875 187.484375 C-59.01591797 188.23460937 -59.01591797 188.23460937 -58 189 C-58 189.66 -58 190.32 -58 191 C-63.18374699 193.09858144 -67.74723094 193.34728294 -73.25 193.3125 C-74.08958252 193.31121094 -74.92916504 193.30992187 -75.79418945 193.30859375 C-81.8984378 193.21405501 -87.34696669 192.44141284 -93 190 C-93 187.69 -93 185.38 -93 183 C-93.66 183 -94.32 183 -95 183 C-95.18175781 184.58941406 -95.18175781 184.58941406 -95.3671875 186.2109375 C-95.53600752 187.59901324 -95.70530308 188.98703119 -95.875 190.375 C-95.95363281 191.07367188 -96.03226563 191.77234375 -96.11328125 192.4921875 C-96.7734375 197.7734375 -96.7734375 197.7734375 -99 200 C-101.4609375 200.3359375 -101.4609375 200.3359375 -104.375 200.375 C-105.33148438 200.40335938 -106.28796875 200.43171875 -107.2734375 200.4609375 C-110 200 -110 200 -112.35546875 198.578125 C-114.896816 194.59406518 -114.29733871 190.96722739 -113.9375 186.375 C-113.89689453 185.50359375 -113.85628906 184.6321875 -113.81445312 183.734375 C-113.5071823 178.95131584 -113.5071823 178.95131584 -113 177 C-111.515 176.01 -111.515 176.01 -110 175 C-113.3 174.67 -116.6 174.34 -120 174 C-120.07476562 173.04480469 -120.14953125 172.08960938 -120.2265625 171.10546875 C-121.05000371 163.00829686 -122.35817729 157.11574017 -126.7578125 150.07421875 C-128 148 -128 148 -128 146 C-129.98 146.33 -131.96 146.66 -134 147 C-136.7025419 140.91928072 -137.32650252 135.51025584 -137.375 128.9375 C-137.38853516 128.18227051 -137.40207031 127.42704102 -137.41601562 126.64892578 C-137.37308369 121.16198582 -136.16256747 117.0402697 -134 112 C-133.01 112.33 -132.02 112.66 -131 113 C-130.10067675 114.93187958 -129.20164536 116.86389605 -128.3046875 118.796875 C-125.42993139 123.65125358 -120.62510965 126.91659356 -116 130 C-112.88115016 129.90432976 -111.99132502 128.99092154 -109.81640625 126.71484375 C-108.31356017 124.86298315 -106.81355755 123.00881136 -105.31640625 121.15234375 C-103 119 -103 119 -100.40234375 118.69140625 C-99.60957031 118.79324219 -98.81679687 118.89507812 -98 119 C-97.01 119 -96.02 119 -95 119 C-94.01 117.515 -94.01 117.515 -93 116 C-93.41882867 113.87734243 -93.41882867 113.87734243 -94.375 111.6875 C-95.75553248 107.96553578 -96.30870834 105.01320841 -96 101 C-98.61906825 100.16189816 -100.58474199 100.01082856 -103.375 100.0625 C-107.10047213 99.99826772 -109.62818558 99.56828578 -113 98 C-114.375 95.875 -114.375 95.875 -115 94 C-113 91 -113 91 -110.9375 90.3125 C-106.95069539 89.88837185 -103.0049784 89.92147101 -99 90 C-99 89.34 -99 88.68 -99 88 C-98.01 88 -97.02 88 -96 88 C-96 86.68 -96 85.36 -96 84 C-96.54140625 84.22945313 -97.0828125 84.45890625 -97.640625 84.6953125 C-101.12799992 85.14566886 -102.82217364 83.7261918 -105.75 81.875 C-106.73484375 81.27429688 -107.7196875 80.67359375 -108.734375 80.0546875 C-111 78 -111 78 -111.328125 75.2578125 C-111.16570312 74.14019531 -111.16570312 74.14019531 -111 73 C-113.39068734 71.89363605 -113.39068734 71.89363605 -116 71 C-116.99 71.495 -116.99 71.495 -118 72 C-122.59698532 72.42308538 -126.70653278 72.53894467 -131 70.75 C-134.54629168 67.64699478 -134.93554983 65.81207215 -135.3125 61.0625 C-135.38587046 58.22362772 -135.06711257 57.10551294 -133.51171875 54.66015625 C-131.18813565 50.57137048 -131.53299173 46.57644867 -131.40625 41.9609375 C-131 39 -131 39 -129.65625 37.1015625 C-128 36 -128 36 -125 36 C-126.25176484 31.73999099 -126.25176484 31.73999099 -128.5625 28 C-130.56033708 25.22040058 -130.87043698 23.43342006 -131 20 C-130.12093546 15.16941235 -128.78564908 11.25697989 -125 8 C-119.82439032 4.54959355 -115.06239345 4.33764442 -109 5 C-105.3144506 6.25814674 -102.69115446 8.09016618 -100.30859375 11.2265625 C-98.70074536 14.63424118 -98.79521367 16.94588302 -99 20.6875 C-99.25107859 24.03976125 -99.25107859 24.03976125 -99 27 C-98.01 27.66 -97.02 28.32 -96 29 C-95.75378906 28.41605469 -95.50757813 27.83210938 -95.25390625 27.23046875 C-93.80583817 24.65462178 -92.19766892 23.20349432 -89.9375 21.3125 C-89.22464844 20.71050781 -88.51179688 20.10851562 -87.77734375 19.48828125 C-87.19082031 18.99714844 -86.60429688 18.50601562 -86 18 C-84.40646758 16.40646758 -84.57445972 14.4433477 -84.25 12.25 C-83.2984541 7.43021313 -82.21871844 4.84304938 -78 2 C-73.82837873 0.63239632 -70.8457135 0.71277655 -66.6875 2.125 C-63.58629754 4.28862962 -62.31448695 5.44315296 -61 9 C-60.71208548 13.79857532 -61.32847465 17.05196421 -64.125 21 C-67.53559548 23.37258816 -69.89289515 23.70130147 -74 24 C-78.05335849 24.50153117 -79.85481256 26.54223721 -82.625 29.4375 C-83.40101562 30.24058594 -84.17703125 31.04367188 -84.9765625 31.87109375 C-85.64429688 32.57363281 -86.31203125 33.27617188 -87 34 C-87.66 34.66 -88.32 35.32 -89 36 C-84.38 40.62 -79.76 45.24 -75 50 C-70.00230473 47.4618524 -70.00230473 47.4618524 -65.00927734 44.91455078 C-59.84260843 42.31088544 -55.07101681 40.20710168 -49.25 39.625 C-45.99487526 39.35012367 -45.99487526 39.35012367 -44.5625 37.3125 C-43.88263166 34.95108979 -43.88263166 34.95108979 -44.0625 32.25 C-43.97988452 27.95399528 -42.63889793 24.96066999 -41 21 C-39.35 21 -37.7 21 -36 21 C-35.491217 22.55966218 -34.99336531 24.12289241 -34.5 25.6875 C-34.2215625 26.55761719 -33.943125 27.42773438 -33.65625 28.32421875 C-32.99903784 31.00392309 -32.96359725 33.25614291 -33 36 C-32.67 36.99 -32.34 37.98 -32 39 C-30.7625 39.061875 -29.525 39.12375 -28.25 39.1875 C-20.59459527 40.03273396 -13.46916967 43.35609253 -7 47.4375 C-4.26118972 49.30990791 -4.26118972 49.30990791 -2.203125 48.44921875 C0.90407208 46.4053001 3.55260673 43.91751901 6.25 41.375 C7.08144531 40.6015625 7.08144531 40.6015625 7.9296875 39.8125 C9.2902712 38.54574965 10.64565837 37.27342185 12 36 C6.22279004 28.72056118 6.22279004 28.72056118 -1 23 C-4.54171978 22.83330682 -4.54171978 22.83330682 -8 23 C-12.01008788 20.88146301 -14.34527302 19.2218735 -16 15 C-16.41603602 10.98561733 -16.00275786 7.42298875 -13.6484375 4.08203125 C-9.57498723 0.16668293 -5.57072909 -1.59475774 0 0 Z M34 6 C34 6.33 34 6.66 34 7 C35.65 7 37.3 7 39 7 C39 6.67 39 6.34 39 6 C37.35 6 35.7 6 34 6 Z M40 6 C44 7 44 7 44 7 Z M-116 7 C-112 8 -112 8 -112 8 Z M-80 7 C-80.33 9.31 -80.66 11.62 -81 14 C-80.34 13.67 -79.68 13.34 -79 13 C-78.34227572 9.97065509 -78.34227572 9.97065509 -78 7 C-78.66 7 -79.32 7 -80 7 Z M-11 7 C-11.66 8.32 -12.32 9.64 -13 11 C-12.34 11 -11.68 11 -11 11 C-10.67 9.68 -10.34 8.36 -10 7 C-10.33 7 -10.66 7 -11 7 Z M-120 8 C-116 9 -116 9 -116 9 Z M-112 8 C-110.515 8.99 -110.515 8.99 -109 10 C-108.34 9.67 -107.68 9.34 -107 9 C-108.65 8.67 -110.3 8.34 -112 8 Z M46 8 C46.33 8.66 46.66 9.32 47 10 C47.66 9.67 48.32 9.34 49 9 C48.01 8.67 47.02 8.34 46 8 Z M-107 10 C-106.01 10.99 -105.02 11.98 -104 13 C-104.33 12.01 -104.66 11.02 -105 10 C-105.66 10 -106.32 10 -107 10 Z M31 13 C29.97136805 16.58878258 29.64465887 19.77245792 30.6875 23.375 C32.30492159 25.37752197 33.61684354 26.03659632 36 27 C40.07471862 27.21185712 43.8120599 26.93595281 47.0625 24.375 C48.40735398 20.96803659 48.50984938 18.63267682 48 15 C46.00859161 12.07511893 44.58770642 10.33011718 41.02734375 9.58984375 C36.84352146 9.40997849 33.63307355 9.62966585 31 13 Z M49 10 C49.33 10.99 49.66 11.98 50 13 C50 12.01 50 11.02 50 10 C49.67 10 49.34 10 49 10 Z M-124 11 C-124 14 -124 14 -124 14 Z M-121 14 C-123.47342266 17.71013399 -123.38503486 19.61060262 -123 24 C-122.25463249 26.5771736 -122.25463249 26.5771736 -120 28 C-115.93668147 28.67721975 -112.33276554 28.53310621 -108.5 27 C-106.17157976 23.89543968 -105.69292599 20.84216992 -106 17 C-107.89581251 13.43587249 -109.11846103 12.30009837 -112.9375 11 C-116.60292141 11 -118.13056023 11.76821352 -121 14 Z M27 11 C28 13 28 13 28 13 Z M-104 13 C-103.67 16.96 -103.34 20.92 -103 25 C-102.67 25 -102.34 25 -102 25 C-100.88341499 20.31034294 -101.19380477 17.46236469 -103 13 C-103.33 13 -103.66 13 -104 13 Z M26 13 C27 17 27 17 27 17 Z M51 13 C51.33 15.31 51.66 17.62 52 20 C52.69159401 18.15274948 52.69159401 18.15274948 53 16 C52.34 15.01 51.68 14.02 51 13 Z M-126 14 C-125 16 -125 16 -125 16 Z M-127 16 C-127 18.97 -127 21.94 -127 25 C-126.67 25 -126.34 25 -126 25 C-126 22.03 -126 19.06 -126 16 C-126.33 16 -126.66 16 -127 16 Z M25 17 C26 19 26 19 26 19 Z M26 19 C26 20.65 26 22.3 26 24 C26.99 24.495 26.99 24.495 28 25 C27.67 23.02 27.34 21.04 27 19 C26.67 19 26.34 19 26 19 Z M51 20 C52 24 52 24 52 24 Z M-39 23 C-39 23.99 -39 24.98 -39 26 C-38.34 25.34 -37.68 24.68 -37 24 C-37.66 23.67 -38.32 23.34 -39 23 Z M-126 25 C-125 27 -125 27 -125 27 Z M-104 25 C-105.32 26.65 -106.64 28.3 -108 30 C-106.68 29.34 -105.36 28.68 -104 28 C-104 27.01 -104 26.02 -104 25 Z M28 25 C28.66 26.32 29.32 27.64 30 29 C30.66 28.67 31.32 28.34 32 28 C30.68 27.01 29.36 26.02 28 25 Z M49 25 C47.515 26.98 47.515 26.98 46 29 C47.32 28.34 48.64 27.68 50 27 C49.67 26.34 49.34 25.68 49 25 Z M-40 28 C-41.35618499 29.12534105 -41.35618499 29.12534105 -41.0625 32.0625 C-41.041875 33.031875 -41.02125 34.00125 -41 35 C-39.35 35 -37.7 35 -36 35 C-36 33.02 -36 31.04 -36 29 C-37.94603274 28.40929986 -37.94603274 28.40929986 -40 28 Z M-123 29 C-122.67 29.66 -122.34 30.32 -122 31 C-121.34 30.67 -120.68 30.34 -120 30 C-120.99 29.67 -121.98 29.34 -123 29 Z M34 30 C34 30.33 34 30.66 34 31 C37.3 31 40.6 31 44 31 C44 30.67 44 30.34 44 30 C40.7 30 37.4 30 34 30 Z M-119 31 C-119 31.33 -119 31.66 -119 32 C-116.03 32 -113.06 32 -110 32 C-110 31.67 -110 31.34 -110 31 C-112.97 31 -115.94 31 -119 31 Z M32 33 C31.34 34.32 30.68 35.64 30 37 C31.1427919 38.16964602 32.28931715 39.33564556 33.4375 40.5 C34.07558594 41.1496875 34.71367187 41.799375 35.37109375 42.46875 C36.74882927 44.11415476 36.74882927 44.11415476 38 44 C38.66 41.36 39.32 38.72 40 36 C41.32 35.67 42.64 35.34 44 35 C43.67 34.34 43.34 33.68 43 33 C39.37 33 35.74 33 32 33 Z M-119 34 C-119 34.66 -119 35.32 -119 36 C-118.360625 36.185625 -117.72125 36.37125 -117.0625 36.5625 C-115 38 -115 38 -114.25 41.625 C-114.1675 42.73875 -114.085 43.8525 -114 45 C-112.82174642 44.09827532 -111.65768423 43.17798498 -110.5 42.25 C-109.52546875 41.48429687 -109.52546875 41.48429687 -108.53125 40.703125 C-106.55427485 38.88595704 -106.55427485 38.88595704 -107 35 C-109.88211302 34.03929566 -111.69850044 33.89418117 -114.6875 33.9375 C-115.49574219 33.94652344 -116.30398437 33.95554688 -117.13671875 33.96484375 C-117.75160156 33.97644531 -118.36648437 33.98804688 -119 34 Z M-43 38 C-43 38.33 -43 38.66 -43 39 C-40.36 39 -37.72 39 -35 39 C-35 38.67 -35 38.34 -35 38 C-37.64 38 -40.28 38 -43 38 Z M44 39 C44 42.3 44 45.6 44 49 C46.31 49 48.62 49 51 49 C50.67 46.03 50.34 43.06 50 40 C49.67 40.66 49.34 41.32 49 42 C46 41 46 41 44 39 Z M-126 40 C-126 43.3 -126 46.6 -126 50 C-124.02 50 -122.04 50 -120 50 C-120 47.36 -120 44.72 -120 42 C-121.32 42 -122.64 42 -124 42 C-124.66 41.34 -125.32 40.68 -126 40 Z M-77.78515625 57.6953125 C-89.65634936 70.04805312 -93.5519494 83.47414877 -93.27734375 100.34375 C-92.71516078 114.08227115 -85.88951343 125.74752777 -76.68359375 135.60546875 C-66.30648473 144.86481057 -53.59384226 149.6029385 -39.75 149.4375 C-38.83613525 149.42847656 -37.92227051 149.41945313 -36.98071289 149.41015625 C-21.50225828 149.01777926 -9.20845482 143.62704644 1.75 132.5 C9.02686944 123.9109082 15.17147643 112.35997873 16 101 C16.06832031 100.07058594 16.13664062 99.14117187 16.20703125 98.18359375 C16.70786553 83.95619042 12.59835115 71.02193242 3.51953125 59.984375 C-8.20439904 47.60065642 -21.41678826 41.79530354 -38.32421875 40.9453125 C-53.79273529 41.17544983 -66.71041266 47.03340376 -77.78515625 57.6953125 Z M12 42 C12 43.32 12 44.64 12 46 C12.66 46 13.32 46 14 46 C13.67 44.68 13.34 43.36 13 42 C12.67 42 12.34 42 12 42 Z M-91 43 C-91 43.99 -91 44.98 -91 46 C-90.01 45.67 -89.02 45.34 -88 45 C-88 44.34 -88 43.68 -88 43 C-88.99 43 -89.98 43 -91 43 Z M-101.43359375 46.37109375 C-102.94826997 47.90997252 -104.45548984 49.45595053 -105.96289062 51.00195312 C-109.79958977 54.89979488 -109.79958977 54.89979488 -112 56 C-112 59.3 -112 62.6 -112 66 C-109.525 66.99 -109.525 66.99 -107 68 C-106.34 67.34 -105.68 66.68 -105 66 C-100.75573181 65.42934209 -98.6035942 66.55264893 -95.1875 69 C-94.39730469 69.556875 -93.60710937 70.11375 -92.79296875 70.6875 C-92.20128906 71.120625 -91.60960938 71.55375 -91 72 C-89.82508418 70.23462904 -88.66031316 68.46250287 -87.5 66.6875 C-86.8503125 65.70136719 -86.200625 64.71523437 -85.53125 63.69921875 C-83.7532873 61.08232361 -83.7532873 61.08232361 -84 58 C-85.27720994 56.29135988 -85.27720994 56.29135988 -87.02734375 54.64453125 C-87.65447266 54.02255859 -88.28160156 53.40058594 -88.92773438 52.75976562 C-89.59095703 52.11716797 -90.25417969 51.47457031 -90.9375 50.8125 C-91.59685547 50.15830078 -92.25621094 49.50410156 -92.93554688 48.83007812 C-96.91231241 43.84254108 -96.91231241 43.84254108 -101.43359375 46.37109375 Z M19.39599609 45.37695312 C18.77805176 46.00537109 18.16010742 46.63378906 17.5234375 47.28125 C16.853125 47.95800781 16.1828125 48.63476562 15.4921875 49.33203125 C14.44417969 50.40517578 14.44417969 50.40517578 13.375 51.5 C12.66859375 52.21542969 11.9621875 52.93085937 11.234375 53.66796875 C9.48504407 55.44093929 7.74053464 57.21840011 6 59 C7.09040327 61.00753698 8.19773572 63.00588751 9.3125 65 C9.92738281 66.11375 10.54226562 67.2275 11.17578125 68.375 C12.07876953 69.674375 12.07876953 69.674375 13 71 C16.28205797 71.32086132 16.28205797 71.32086132 19.0625 68.4375 C22.30765022 65.96039173 24.22863813 65.78414589 28.25 66.3125 C29.49523437 66.55419922 29.49523437 66.55419922 30.765625 66.80078125 C33.28746955 67.26075478 33.28746955 67.26075478 36 65 C36.47184602 60.81690354 36.46942606 56.91332145 33.80712891 53.44677734 C30.49931947 49.9484486 26.87082208 46.85561348 23 44 C20.90059569 43.78287939 20.90059569 43.78287939 19.39599609 45.37695312 Z M-86 46 C-86.66 47.32 -87.32 48.64 -88 50 C-86.68 51.32 -85.36 52.64 -84 54 C-82.68 53.34 -81.36 52.68 -80 52 C-81.04874998 49.37812506 -81.64931313 48.20628639 -84.125 46.75 C-85.053125 46.37875 -85.053125 46.37875 -86 46 Z M7 46 C5.68 47.65 4.36 49.3 3 51 C4.98 51.99 4.98 51.99 7 53 C9.05990478 51.70532323 9.05990478 51.70532323 11 50 C11 49.01 11 48.02 11 47 C9.68 46.67 8.36 46.34 7 46 Z M41.8125 55 C41.214375 55.66 40.61625 56.32 40 57 C40.33 57.99 40.66 58.98 41 60 C44.42578949 56.82460444 44.42578949 56.82460444 47 53 C43.87501834 52.6626154 43.87501834 52.6626154 41.8125 55 Z M-129 65 C-129 65.99 -129 66.98 -129 68 C-126.69 68.33 -124.38 68.66 -122 69 C-122.8971875 68.566875 -122.8971875 68.566875 -123.8125 68.125 C-126 67 -126 67 -129 65 Z M-103 70 C-103.12375 70.639375 -103.2475 71.27875 -103.375 71.9375 C-103.58125 72.618125 -103.7875 73.29875 -104 74 C-104.99 74.495 -104.99 74.495 -106 75 C-102.535 76.98 -102.535 76.98 -99 79 C-98.67 78.34 -98.34 77.68 -98 77 C-97.01 76.34 -96.02 75.68 -95 75 C-96.1437636 74.16382818 -97.29007139 73.33113541 -98.4375 72.5 C-99.07558594 72.0359375 -99.71367188 71.571875 -100.37109375 71.09375 C-101.81136032 69.90709103 -101.81136032 69.90709103 -103 70 Z M19 74 C19.99 74.495 19.99 74.495 21 75 C22.125 77.0625 22.125 77.0625 23 79 C24.98 77.68 26.96 76.36 29 75 C28.34 73.35 27.68 71.7 27 70 C23.71841516 70 21.62118892 72.17656423 19 74 Z M-97 91 C-97.6878236 93.35367713 -97.6878236 93.35367713 -98 96 C-97.01 97.485 -97.01 97.485 -96 99 C-96 96.36 -96 93.72 -96 91 C-96.33 91 -96.66 91 -97 91 Z M19 91 C19 93.64 19 96.28 19 99 C19.33 99 19.66 99 20 99 C20 96.36 20 93.72 20 91 C19.67 91 19.34 91 19 91 Z M-106 92 C-106.33 93.65 -106.66 95.3 -107 97 C-104.69 97 -102.38 97 -100 97 C-100 95.35 -100 93.7 -100 92 C-101.98 92 -103.96 92 -106 92 Z M23 92 C23 93.65 23 95.3 23 97 C26.62326739 98.2077558 27.64146369 97.54311128 31 96 C30.67 94.68 30.34 93.36 30 92 C27.69 92 25.38 92 23 92 Z M-111 93 C-111.33 93.99 -111.66 94.98 -112 96 C-111.34 96 -110.68 96 -110 96 C-110.33 95.01 -110.66 94.02 -111 93 Z M34 93 C34 93.99 34 94.98 34 96 C34.66 95.34 35.32 94.68 36 94 C35.34 93.67 34.68 93.34 34 93 Z M12 122 C10.02 124.97 8.04 127.94 6 131 C8.90843066 133.96652777 11.82810643 136.92173641 14.75 139.875 C15.9875 141.13763672 15.9875 141.13763672 17.25 142.42578125 C18.04921875 143.23144531 18.8484375 144.03710938 19.671875 144.8671875 C20.4050293 145.61081543 21.13818359 146.35444336 21.89355469 147.12060547 C23.86744809 148.88173567 25.58285657 149.96339896 28 151 C28.58776634 148.2553656 28.58776634 148.2553656 28 145 C26.47502426 143.35248157 24.79331247 142.07509258 23.0234375 140.6953125 C19.06514986 137.37890934 14.63002524 133.07137305 13.5625 127.8671875 C13.5625 125.9375 13.5625 125.9375 14 123 C13.34 122.67 12.68 122.34 12 122 Z M-91 123 C-91.33 123.66 -91.66 124.32 -92 125 C-91.67 125.99 -91.34 126.98 -91 128 C-92.546875 130.59375 -92.546875 130.59375 -94.75 133.5 C-95.82507813 134.93859375 -95.82507813 134.93859375 -96.921875 136.40625 C-101.18630137 141.72876712 -101.18630137 141.72876712 -105 143 C-105 145.31 -105 147.62 -105 150 C-102.66317161 148.00395909 -100.32965956 146.00438634 -98 144 C-97.31679687 143.4121875 -96.63359375 142.824375 -95.9296875 142.21875 C-93.93980026 140.49367665 -91.96785989 138.75012174 -90 137 C-89.18208984 136.30003906 -89.18208984 136.30003906 -88.34765625 135.5859375 C-86.76770257 134.21824557 -86.76770257 134.21824557 -85 132 C-85 128.57264456 -87.07890739 125.76637336 -89 123 C-89.66 123 -90.32 123 -91 123 Z M-134 125 C-134.20852314 131.40629424 -134.1583195 136.92972642 -132 143 C-131.34 143 -130.68 143 -130 143 C-130.13277344 142.28714844 -130.26554688 141.57429688 -130.40234375 140.83984375 C-131.37405788 135.56989045 -132.2917454 130.3119095 -133 125 C-133.33 125 -133.66 125 -134 125 Z M-103.60546875 126.4609375 C-104.12753906 127.09257812 -104.64960937 127.72421875 -105.1875 128.375 C-105.71730469 129.00148437 -106.24710938 129.62796875 -106.79296875 130.2734375 C-108.19098815 131.92208633 -108.19098815 131.92208633 -108 134 C-106.68 134 -105.36 134 -104 134 C-103.67 134.66 -103.34 135.32 -103 136 C-101.02 133.69 -99.04 131.38 -97 129 C-97.66 127.68 -98.32 126.36 -99 125 C-101.9919735 124.6634845 -101.9919735 124.6634845 -103.60546875 126.4609375 Z M22 125 C21.01 125.66 20.02 126.32 19 127 C20.54689244 130.48050799 22.21973701 133.37002149 25 136 C28.70054409 135.9363921 28.70054409 135.9363921 32 135 C31.09373216 133.7010161 30.17450463 132.41106833 29.25 131.125 C28.73953125 130.40570313 28.2290625 129.68640625 27.703125 128.9453125 C25.92496453 126.91429435 24.47298393 126.02144988 22 125 Z M51 125 C48.03 127.64 45.06 130.28 42 133 C42.33 133.99 42.66 134.98 43 136 C46.48872415 134.83709195 47.09976864 133.86032391 49.1875 130.9375 C49.98220703 129.83728516 49.98220703 129.83728516 50.79296875 128.71484375 C51.19128906 128.14894531 51.58960938 127.58304687 52 127 C51.67 126.34 51.34 125.68 51 125 Z M3 134 C2.34 135.32 1.68 136.64 1 138 C1.99 137.34 2.98 136.68 4 136 C3.67 135.34 3.34 134.68 3 134 Z M-115 136 C-116.485 137.98 -116.485 137.98 -118 140 C-116.02 143.63 -114.04 147.26 -112 151 C-111.67 151 -111.34 151 -111 151 C-110.34132543 147.64141186 -109.8534836 144.42743722 -110 141 C-112.22990529 137.84777425 -112.22990529 137.84777425 -115 136 Z M-85 136 C-86.98 137.98 -88.96 139.96 -91 142 C-90.34 143.32 -89.68 144.64 -89 146 C-86.15616877 144.7251791 -83.86245982 143.54862922 -82 141 C-82.07606836 138.86196946 -82.07606836 138.86196946 -83 137 C-83.66 136.67 -84.32 136.34 -85 136 Z M-80 136 C-79 138 -79 138 -79 138 Z M6 137 C5.34 138.32 4.68 139.64 4 141 C6.22877725 143.64573501 6.22877725 143.64573501 9 146 C11.27523089 145.95502158 11.27523089 145.95502158 13 145 C12.45912682 141.21388773 10.88277668 139.44599233 8 137 C7.34 137 6.68 137 6 137 Z M37 137 C34.72885098 138.8923894 34.72885098 138.8923894 33 142 C32.9428246 145.40453547 33.40214495 148.65331142 34 152 C37.33161397 149.01303575 39.34826557 146.17280278 41 142 C41.03557297 139.71380616 41.03557297 139.71380616 40 138 C39.01 137.67 38.02 137.34 37 137 Z M-94 146 C-94 146.99 -94 147.98 -94 149 C-93.34 149 -92.68 149 -92 149 C-92 148.01 -92 147.02 -92 146 C-92.66 146 -93.32 146 -94 146 Z M13 147 C13.33 147.99 13.66 148.98 14 150 C14.99 150 15.98 150 17 150 C16.67 149.01 16.34 148.02 16 147 C15.01 147 14.02 147 13 147 Z M28 151 C29 153 29 153 29 153 Z M-36 152 C-36.99 152.66 -37.98 153.32 -39 154 C-37.68 154 -36.36 154 -35 154 C-35.33 153.34 -35.66 152.68 -36 152 Z M-107 155 C-106 157 -106 157 -106 157 Z M-41 156 C-42.35618499 157.12534105 -42.35618499 157.12534105 -42.0625 160.0625 C-42.041875 161.031875 -42.02125 162.00125 -42 163 C-39.525 163.495 -39.525 163.495 -37 164 C-37 161.36 -37 158.72 -37 156 C-38.32 156 -39.64 156 -41 156 Z M-40 166 C-40 166.99 -40 167.98 -40 169 C-39.34 168.34 -38.68 167.68 -38 167 C-38.66 166.67 -39.32 166.34 -40 166 Z M-81 173 C-80.67 173.99 -80.34 174.98 -80 176 C-79.34 176 -78.68 176 -78 176 C-78.33 175.01 -78.66 174.02 -79 173 C-79.66 173 -80.32 173 -81 173 Z M1 173 C0.34 174.32 -0.32 175.64 -1 177 C0.32 176.34 1.64 175.68 3 175 C2.34 174.34 1.68 173.68 1 173 Z M-107 181 C-108.00496852 184.01490557 -108.10335303 186.04181692 -108.0625 189.1875 C-108.05347656 190.08855469 -108.04445313 190.98960937 -108.03515625 191.91796875 C-108.02355469 192.60503906 -108.01195313 193.29210937 -108 194 C-106.34385343 194.38218767 -104.67542976 194.71395102 -103 195 C-101.66098208 193.88873341 -101.66098208 193.88873341 -101.90234375 191.05859375 C-101.91394531 189.86363281 -101.92554688 188.66867188 -101.9375 187.4375 C-101.94652344 186.23996094 -101.95554687 185.04242188 -101.96484375 183.80859375 C-101.97644531 182.88175781 -101.98804688 181.95492187 -102 181 C-103.65 181 -105.3 181 -107 181 Z M24 182 C24 186.62 24 191.24 24 196 C25.98 196 27.96 196 30 196 C30 191.38 30 186.76 30 182 C28.02 182 26.04 182 24 182 Z " fill="#FFFFFF" transform="translate(138,1)"/>
<path d="M0 0 C9.1373364 6.36474769 16.04098124 15.29050108 18.4140625 26.29296875 C20.1538008 38.89546324 17.76859268 49.22430204 10.34765625 59.5546875 C3.9943971 67.66163078 -3.98683129 73.42355117 -14.265625 75.61328125 C-24.15057886 76.20560167 -33.44887778 76.73113994 -42.265625 71.61328125 C-43.41224609 70.97712891 -43.41224609 70.97712891 -44.58203125 70.328125 C-53.733181 64.76930476 -61.04663565 56.58378899 -63.9453125 46.171875 C-66.50318728 34.69647786 -65.4257828 23.84977265 -59.703125 13.42578125 C-53.27486724 3.57756369 -44.49022849 -2.33824463 -33.4453125 -5.98828125 C-21.2951095 -8.2092861 -10.52112656 -6.43965505 0 0 Z M-49.265625 9.61328125 C-55.57287119 17.45085702 -58.78700421 24.65793413 -58.578125 34.67578125 C-58.58134766 35.45244141 -58.58457031 36.22910156 -58.58789062 37.02929688 C-58.54530499 41.601445 -57.99262702 45.31297741 -56.265625 49.61328125 C-56.018125 49.05640625 -55.770625 48.49953125 -55.515625 47.92578125 C-53.35696581 43.93226175 -51.5560521 41.15644142 -47.27734375 39.35546875 C-46.18035156 39.06929687 -45.08335938 38.783125 -43.953125 38.48828125 C-42.80457031 38.16601562 -41.65601562 37.84375 -40.47265625 37.51171875 C-38.88517578 37.06699219 -38.88517578 37.06699219 -37.265625 36.61328125 C-32.8642778 35.13371122 -29.60906256 33.81134117 -27.265625 29.61328125 C-27.29891416 26.67674522 -27.29891416 26.67674522 -28.015625 23.61328125 C-28.21671875 22.58203125 -28.4178125 21.55078125 -28.625 20.48828125 C-28.99825202 18.81319902 -29.38835367 17.14138089 -29.8203125 15.48046875 C-30.79099662 11.41040727 -31.35460642 7.41809661 -29.1484375 3.76171875 C-27.765625 2.11328125 -27.765625 2.11328125 -25.265625 -0.38671875 C-34.16521608 -1.32351781 -43.02249129 3.54468676 -49.265625 9.61328125 Z M-21.265625 -0.38671875 C-20.46125 0.31453125 -19.656875 1.01578125 -18.828125 1.73828125 C-15.91460563 5.00710786 -15.60116378 6.33516186 -15.265625 10.61328125 C-15.82421875 13.54296875 -15.82421875 13.54296875 -16.703125 16.48828125 C-18.03495138 21.48727607 -18.98841383 25.46341082 -18.265625 30.61328125 C-14.49277444 35.37287734 -10.90774424 36.734022 -5.265625 38.17578125 C-0.08492105 39.5283082 3.79980819 40.73866974 7.734375 44.61328125 C8.546875 47.36328125 8.546875 47.36328125 8.734375 49.61328125 C12.91540455 41.52995746 13.11275093 31.90101651 10.828125 23.13671875 C6.62838024 12.50274966 0.84504462 6.78426097 -9.265625 1.61328125 C-13.45119786 -0.15753803 -16.73112937 -0.60264711 -21.265625 -0.38671875 Z M-27.265625 3.61328125 C-30.52781119 8.9072789 -28.84060546 14.09244585 -27.5234375 19.8671875 C-26.79858673 22.79075228 -26.04814287 25.70467709 -25.265625 28.61328125 C-23.945625 28.28328125 -22.625625 27.95328125 -21.265625 27.61328125 C-17.68011331 16.82890225 -17.68011331 16.82890225 -17.265625 5.61328125 C-18.90316182 2.56883489 -18.90316182 2.56883489 -21.140625 1.80078125 C-23.86977954 1.5599735 -25.02931768 2.04786613 -27.265625 3.61328125 Z M8.734375 14.61328125 C9.734375 16.61328125 9.734375 16.61328125 9.734375 16.61328125 Z M10.734375 18.61328125 C11.734375 20.61328125 11.734375 20.61328125 11.734375 20.61328125 Z M11.734375 20.61328125 C12.734375 22.61328125 12.734375 22.61328125 12.734375 22.61328125 Z M12.734375 23.61328125 C13.734375 26.61328125 13.734375 26.61328125 13.734375 26.61328125 Z M13.734375 27.61328125 C13.734375 32.23328125 13.734375 36.85328125 13.734375 41.61328125 C14.064375 41.61328125 14.394375 41.61328125 14.734375 41.61328125 C14.734375 36.99328125 14.734375 32.37328125 14.734375 27.61328125 C14.404375 27.61328125 14.074375 27.61328125 13.734375 27.61328125 Z M-25.265625 30.61328125 C-25.925625 31.27328125 -26.585625 31.93328125 -27.265625 32.61328125 C-26.94521103 35.21608693 -26.94521103 35.21608693 -26.265625 37.61328125 C-23.86843068 38.29286728 -23.86843068 38.29286728 -21.265625 38.61328125 C-20.605625 37.95328125 -19.945625 37.29328125 -19.265625 36.61328125 C-19.58603897 34.01047557 -19.58603897 34.01047557 -20.265625 31.61328125 C-22.66281932 30.93369522 -22.66281932 30.93369522 -25.265625 30.61328125 Z M-17.265625 35.61328125 C-17.595625 36.93328125 -17.925625 38.25328125 -18.265625 39.61328125 C-16.33041439 41.40747651 -14.3925896 43.19869454 -12.453125 44.98828125 C-11.90591797 45.49617188 -11.35871094 46.0040625 -10.79492188 46.52734375 C-5.74926101 51.42176243 -5.74926101 51.42176243 0.796875 52.92578125 C2.09625 52.82265625 3.395625 52.71953125 4.734375 52.61328125 C6.99579758 49.866336 6.99579758 49.866336 6.609375 47.11328125 C5.53069632 44.03134217 4.44299605 43.3677155 1.734375 41.61328125 C-0.46476649 40.68319242 -0.46476649 40.68319242 -2.8125 40.0078125 C-3.65683594 39.74677734 -4.50117187 39.48574219 -5.37109375 39.21679688 C-6.68013672 38.82524414 -6.68013672 38.82524414 -8.015625 38.42578125 C-8.90378906 38.15314453 -9.79195312 37.88050781 -10.70703125 37.59960938 C-12.89114221 36.93028505 -15.07723801 36.26846219 -17.265625 35.61328125 Z M-38.515625 38.36328125 C-39.17175781 38.52054688 -39.82789063 38.6778125 -40.50390625 38.83984375 C-45.04542131 40.01359516 -48.54681791 41.63255801 -52.265625 44.61328125 C-53.1824713 47.65702858 -53.1824713 47.65702858 -52.265625 50.61328125 C-50.30285595 52.89136731 -50.30285595 52.89136731 -47.265625 53.61328125 C-41.65668819 51.75699026 -38.02375235 49.00559455 -33.828125 44.92578125 C-33.28736328 44.41466797 -32.74660156 43.90355469 -32.18945312 43.37695312 C-30.87346367 42.13083921 -29.56836595 40.87323924 -28.265625 39.61328125 C-28.595625 38.62328125 -28.925625 37.63328125 -29.265625 36.61328125 C-32.45224559 36.61328125 -35.44755673 37.57418116 -38.515625 38.36328125 Z M-35.98046875 49.34375 C-40.6269808 53.77160266 -44.94649908 54.87583798 -51.265625 55.61328125 C-49.82467448 59.06397854 -48.07782259 60.88845142 -45.140625 63.17578125 C-44.41617188 63.75457031 -43.69171875 64.33335938 -42.9453125 64.9296875 C-34.17797385 70.43803 -24.36483898 71.17999025 -14.265625 69.61328125 C-6.30346941 67.33680096 -0.21418898 63.2174646 4.734375 56.61328125 C4.734375 56.28328125 4.734375 55.95328125 4.734375 55.61328125 C4.15171875 55.59652344 3.5690625 55.57976562 2.96875 55.5625 C-5.1073589 54.71171494 -9.19649396 50.63896325 -14.69921875 45.14453125 C-17.38582713 42.49472572 -19.22833835 40.83038776 -22.953125 40.05078125 C-28.61503095 41.01223698 -32.0451901 45.3726146 -35.98046875 49.34375 Z M12.734375 42.61328125 C13.734375 45.61328125 13.734375 45.61328125 13.734375 45.61328125 Z M11.734375 46.61328125 C12.734375 48.61328125 12.734375 48.61328125 12.734375 48.61328125 Z M-55.265625 49.61328125 C-54.265625 51.61328125 -54.265625 51.61328125 -54.265625 51.61328125 Z M-54.265625 51.61328125 C-53.265625 53.61328125 -53.265625 53.61328125 -53.265625 53.61328125 Z " fill="#FFFFFF" transform="translate(122.265625,61.38671875)"/>
<path d="M0 0 C1.65 0 3.3 0 5 0 C5.33 0.99 5.66 1.98 6 3 C6.66 2.01 7.32 1.02 8 0 C9.65 0 11.3 0 13 0 C13 5.28 13 10.56 13 16 C10.36 16 7.72 16 5 16 C4.67 15.34 4.34 14.68 4 14 C3.67 14.66 3.34 15.32 3 16 C2.01 16 1.02 16 0 16 C0 10.72 0 5.44 0 0 Z " fill="#FFFFFF" transform="translate(16,203)"/>
<path d="M0 0 C4 1 4 1 6 3 C6.33 2.34 6.66 1.68 7 1 C8.32 1 9.64 1 11 1 C11.33 2.32 11.66 3.64 12 5 C12.33 3.68 12.66 2.36 13 1 C14.32 1 15.64 1 17 1 C16.69075786 3.10464793 16.3774944 5.2087053 16.0625 7.3125 C15.88847656 8.48425781 15.71445313 9.65601563 15.53515625 10.86328125 C15 14 15 14 14 17 C12.68 17 11.36 17 10 17 C9.67 15.35 9.34 13.7 9 12 C8.34 13.65 7.68 15.3 7 17 C5.68 17 4.36 17 3 17 C2.01 11.39 1.02 5.78 0 0 Z " fill="#FFFFFF" transform="translate(127,202)"/>
<path d="M0 0 C-0.33 0.804375 -0.66 1.60875 -1 2.4375 C-2.06059041 4.69681125 -2.06059041 4.69681125 -2 6 C-1.01 5.34 -0.02 4.68 1 4 C1.99 4 2.98 4 4 4 C4 4.99 4 5.98 4 7 C4.66 7 5.32 7 6 7 C6 7.99 6 8.98 6 10 C6.7734375 10.7115625 6.7734375 10.7115625 7.5625 11.4375 C8.036875 11.953125 8.51125 12.46875 9 13 C8.72963853 15.97397616 8.14553974 16.85446026 6 19 C3.625 19.5 3.625 19.5 1 19 C-1.57514869 15.8680624 -3 14.10589421 -3 10 C-3.66 10 -4.32 10 -5 10 C-5 9.34 -5 8.68 -5 8 C-5.66 8 -6.32 8 -7 8 C-7.33 7.01 -7.66 6.02 -8 5 C-8.66 5 -9.32 5 -10 5 C-10 4.01 -10 3.02 -10 2 C-3.375 -1.125 -3.375 -1.125 0 0 Z M-5 2 C-4 4 -4 4 -4 4 Z M5 13 C3.68 13.99 2.36 14.98 1 16 C1.99 16.33 2.98 16.66 4 17 C4.66 16.67 5.32 16.34 6 16 C5.67 15.01 5.34 14.02 5 13 Z " fill="#FFFFFF" transform="translate(140,62)"/>
<path d="M0 0 C3.4375 0.4375 3.4375 0.4375 5.4375 2.4375 C5.4375 3.4275 5.4375 4.4175 5.4375 5.4375 C4.1175 5.4375 2.7975 5.4375 1.4375 5.4375 C1.4375 4.7775 1.4375 4.1175 1.4375 3.4375 C0.4475 3.7675 -0.5425 4.0975 -1.5625 4.4375 C-1.5625 6.7475 -1.5625 9.0575 -1.5625 11.4375 C-0.5725 11.4375 0.4175 11.4375 1.4375 11.4375 C0.7775 11.1075 0.1175 10.7775 -0.5625 10.4375 C-0.5625 9.4475 -0.5625 8.4575 -0.5625 7.4375 C1.4175 7.4375 3.3975 7.4375 5.4375 7.4375 C5.5625 10.8125 5.5625 10.8125 5.4375 14.4375 C3.4375 16.4375 3.4375 16.4375 0.5 16.75 C-2.5625 16.4375 -2.5625 16.4375 -4.375 15.4375 C-6.25139437 12.27725685 -6.66080623 9.04674287 -6.5625 5.4375 C-5.14389089 1.18167266 -4.50631922 0.55340762 0 0 Z " fill="#FFFFFF" transform="translate(121.5625,202.5625)"/>
<path d="M0 0 C3 0.4375 3 0.4375 4.875 2 C6.42760304 5.36397326 6.38630676 7.76758575 6 11.4375 C4.875 14.375 4.875 14.375 3 16.4375 C0 17 0 17 -3 16.4375 C-4.875 15 -4.875 15 -6 12.4375 C-6.99951291 4.74680346 -6.99951291 4.74680346 -4.6640625 1.6875 C-3 0.4375 -3 0.4375 0 0 Z M-1 3.4375 C-1.66 4.0975 -2.32 4.7575 -3 5.4375 C-2.67673447 9.03429066 -2.67673447 9.03429066 -2 12.4375 C-0.68 12.1075 0.64 11.7775 2 11.4375 C2 9.1275 2 6.8175 2 4.4375 C1.01 4.1075 0.02 3.7775 -1 3.4375 Z " fill="#FFFFFF" transform="translate(36,202.5625)"/>
<path d="M0 0 C3.33051896 0.48570068 4.014534 0.83665565 6 3.4375 C6.75595176 7.4618314 6.51918919 11.25490239 4.875 15 C3 16.4375 3 16.4375 0 17 C-3 16.4375 -3 16.4375 -4.875 14.375 C-6.24840388 10.78888988 -6.41603355 8.25114085 -6 4.4375 C-4.4369108 1.05080673 -3.7186535 0.54230363 0 0 Z M-1 3.4375 C-2.41577477 4.62174326 -2.41577477 4.62174326 -2.0625 8 C-2.041875 9.134375 -2.02125 10.26875 -2 11.4375 C-0.68 11.7675 0.64 12.0975 2 12.4375 C2.33 10.1275 2.66 7.8175 3 5.4375 C1.68 4.7775 0.36 4.1175 -1 3.4375 Z " fill="#FFFFFF" transform="translate(150,202.5625)"/>
<path d="M0 0 C0.94875 0.04125 1.8975 0.0825 2.875 0.125 C3.535 1.775 4.195 3.425 4.875 5.125 C3.885 5.62 3.885 5.62 2.875 6.125 C3.535 6.785 4.195 7.445 4.875 8.125 C4.29807692 14.70192308 4.29807692 14.70192308 2.875 16.125 C-0.0625 16.375 -0.0625 16.375 -3.125 16.125 C-5.125 13.125 -5.125 13.125 -4.6875 10.8125 C-4.501875 9.925625 -4.31625 9.03875 -4.125 8.125 C-4.310625 7.073125 -4.49625 6.02125 -4.6875 4.9375 C-4.831875 4.009375 -4.97625 3.08125 -5.125 2.125 C-3.125 0.125 -3.125 0.125 0 0 Z M-1.125 3.125 C-1.125 3.785 -1.125 4.445 -1.125 5.125 C-0.465 5.125 0.195 5.125 0.875 5.125 C0.875 4.465 0.875 3.805 0.875 3.125 C0.215 3.125 -0.445 3.125 -1.125 3.125 Z M-2.125 9.125 C-1.795 10.115 -1.465 11.105 -1.125 12.125 C-0.135 11.795 0.855 11.465 1.875 11.125 C0.555 10.465 -0.765 9.805 -2.125 9.125 Z " fill="#FFFFFF" transform="translate(48.125,202.875)"/>
<path d="M0 0 C0.99 0.33 1.98 0.66 3 1 C3 3.31 3 5.62 3 8 C3.66 7.67 4.32 7.34 5 7 C5.65213292 4.97536745 5.65213292 4.97536745 6 3 C7.65 3.33 9.3 3.66 11 4 C10.814375 4.639375 10.62875 5.27875 10.4375 5.9375 C10.293125 6.618125 10.14875 7.29875 10 8 C10.33 8.33 10.66 8.66 11 9 C11.66 7.68 12.32 6.36 13 5 C13.99 5.33 14.98 5.66 16 6 C14.62594577 8.95950142 12.98223068 11.41495396 11 14 C9.3501725 13.57781184 7.70516335 13.13675575 6.0625 12.6875 C5.14597656 12.44386719 4.22945312 12.20023438 3.28515625 11.94921875 C2.15400391 11.47935547 2.15400391 11.47935547 1 11 C0.67 10.01 0.34 9.02 0 8 C-1.32 8.33 -2.64 8.66 -4 9 C-2.80100302 5.9168649 -1.52299523 2.93720508 0 0 Z M7 5 C7.66 5.66 8.32 6.32 9 7 C9 6.34 9 5.68 9 5 C8.34 5 7.68 5 7 5 Z M6 8 C7 10 7 10 7 10 Z " fill="#FFFFFF" transform="translate(111,45)"/>
<path d="M0 0 C0.99 0 1.98 0 3 0 C3 3.96 3 7.92 3 12 C3.99 12 4.98 12 6 12 C6 8.04 6 4.08 6 0 C7.32 0 8.64 0 10 0 C10.05402274 2.10388569 10.09280256 4.20816714 10.125 6.3125 C10.14820312 7.48425781 10.17140625 8.65601563 10.1953125 9.86328125 C10 13 10 13 8 16 C5 16.3125 5 16.3125 2 16 C-0.75562541 13.24437459 -0.43034519 11.2779595 -0.6875 7.4375 C-0.77386719 6.26058594 -0.86023437 5.08367187 -0.94921875 3.87109375 C-0.96597656 2.92363281 -0.98273437 1.97617188 -1 1 C-0.67 0.67 -0.34 0.34 0 0 Z " fill="#FFFFFF" transform="translate(55,203)"/>
<path d="M0 0 C1.32 0 2.64 0 4 0 C4.67413211 1.91405367 5.3390332 3.83136026 6 5.75 C6.37125 6.81734375 6.7425 7.8846875 7.125 8.984375 C8 12 8 12 8 16 C7.01 16 6.02 16 5 16 C4.67 14.68 4.34 13.36 4 12 C2.68 12 1.36 12 0 12 C-0.33 13.32 -0.66 14.64 -1 16 C-1.99 16 -2.98 16 -4 16 C-3.39891424 10.34979382 -1.92471317 5.33835539 0 0 Z M2 7 C1.67 7.66 1.34 8.32 1 9 C1.66 9 2.32 9 3 9 C2.67 8.34 2.34 7.68 2 7 Z " fill="#FFFFFF" transform="translate(7,203)"/>
<path d="M0 0 C2.64 0 5.28 0 8 0 C8.66 0.66 9.32 1.32 10 2 C9.42307692 8.57692308 9.42307692 8.57692308 8 10 C6.33382885 10.04063832 4.66611905 10.042721 3 10 C3 11.98 3 13.96 3 16 C2.01 16 1.02 16 0 16 C0 10.72 0 5.44 0 0 Z M3 3 C3 3.99 3 4.98 3 6 C3.99 6 4.98 6 6 6 C6 5.01 6 4.02 6 3 C5.01 3 4.02 3 3 3 Z " fill="#FFFFFF" transform="translate(94,203)"/>
<path d="M0 0 C2.64 0 5.28 0 8 0 C10 3 10 3 9.6875 6.125 C9 9 9 9 8 10 C6.33382885 10.04063832 4.66611905 10.042721 3 10 C3 11.98 3 13.96 3 16 C2.01 16 1.02 16 0 16 C0 10.72 0 5.44 0 0 Z M3 3 C3 3.99 3 4.98 3 6 C3.99 6 4.98 6 6 6 C6 5.01 6 4.02 6 3 C5.01 3 4.02 3 3 3 Z " fill="#FFFFFF" transform="translate(67,203)"/>
<path d="M0 0 C3.3 0 6.6 0 10 0 C10 0.99 10 1.98 10 3 C8.02 3 6.04 3 4 3 C4 3.99 4 4.98 4 6 C5.32 6 6.64 6 8 6 C8 6.99 8 7.98 8 9 C6.68 9 5.36 9 4 9 C4 11.31 4 13.62 4 16 C2.68 16 1.36 16 0 16 C0 10.72 0 5.44 0 0 Z " fill="#FFFFFF" transform="translate(189,203)"/>
<path d="M0 0 C0.99 0 1.98 0 3 0 C3 0.66 3 1.32 3 2 C2.34 2 1.68 2 1 2 C1.33 2.66 1.66 3.32 2 4 C4.02463255 4.65213292 4.02463255 4.65213292 6 5 C5.67 3.68 5.34 2.36 5 1 C6.32 1.66 7.64 2.32 9 3 C8.34 5.64 7.68 8.28 7 11 C6.34 11 5.68 11 5 11 C5 11.66 5 12.32 5 13 C5.66 13 6.32 13 7 13 C7 13.99 7 14.98 7 16 C3.7 15.01 0.4 14.02 -3 13 C-3 12.01 -3 11.02 -3 10 C-1.02 9.34 0.96 8.68 3 8 C2.360625 7.731875 1.72125 7.46375 1.0625 7.1875 C-1 6 -1 6 -2 3 C-1.34 2.01 -0.68 1.02 0 0 Z " fill="#FFFFFF" transform="translate(49,80)"/>
<path d="M0 0 C3.36591866 1.44253657 5.51047079 3.33264727 8 6 C7.67 6.99 7.34 7.98 7 9 C4.03 8.505 4.03 8.505 1 8 C1.99 9.485 1.99 9.485 3 11 C2.625 13.6875 2.625 13.6875 2 16 C0.35 16 -1.3 16 -3 16 C-2.67 15.34 -2.34 14.68 -2 14 C-1.01 14 -0.02 14 1 14 C-0.72226496 10.75150023 -0.72226496 10.75150023 -4 10 C-3.67 10.99 -3.34 11.98 -3 13 C-3.99 13 -4.98 13 -6 13 C-5.44271087 9.65626525 -4.64826111 6.96687001 -3 4 C-2.01 4 -1.02 4 0 4 C0 2.68 0 1.36 0 0 Z " fill="#FFFFFF" transform="translate(138,115)"/>
<path d="M0 0 C1.66666667 0.33333333 3.33333333 0.66666667 5 1 C5.33 0.67 5.66 0.34 6 0 C7.99958364 -0.04080783 10.00045254 -0.04254356 12 0 C12 1.98 12 3.96 12 6 C11.01 5.67 10.02 5.34 9 5 C9 6.32 9 7.64 9 9 C6.36 9.33 3.72 9.66 1 10 C-2.0651341 5.5862069 -2.0651341 5.5862069 -1.75 2.75 C-1 1 -1 1 0 0 Z M1 3 C1.33 4.65 1.66 6.3 2 8 C2.66 7.67 3.32 7.34 4 7 C3.67 5.68 3.34 4.36 3 3 C2.34 3 1.68 3 1 3 Z " fill="#FFFFFF" transform="translate(90,44)"/>
<path d="M0 0 C0.66 0 1.32 0 2 0 C2.62457273 3.43515002 3 6.49064814 3 10 C1.68 10 0.36 10 -1 10 C-1 10.66 -1 11.32 -1 12 C0.32 12 1.64 12 3 12 C3 12.66 3 13.32 3 14 C-0.3 14 -3.6 14 -7 14 C-7 13.34 -7 12.68 -7 12 C-5.68 12 -4.36 12 -3 12 C-3 11.34 -3 10.68 -3 10 C-4.32 10 -5.64 10 -7 10 C-7 9.01 -7 8.02 -7 7 C-4.69 7 -2.38 7 0 7 C0 6.34 0 5.68 0 5 C-2.64 5.33 -5.28 5.66 -8 6 C-8 5.01 -8 4.02 -8 3 C-5.36 2.67 -2.72 2.34 0 2 C0 1.34 0 0.68 0 0 Z " fill="#FFFFFF" transform="translate(150,85)"/>
<path d="M0 0 C3.3 0 6.6 0 10 0 C10 0.99 10 1.98 10 3 C9.01 3 8.02 3 7 3 C7 7.29 7 11.58 7 16 C5.68 16 4.36 16 3 16 C3 11.71 3 7.42 3 3 C2.01 3 1.02 3 0 3 C0 2.01 0 1.02 0 0 Z " fill="#FFFFFF" transform="translate(178,203)"/>
<path d="M0 0 C2 2 2 2 2.3125 4.9375 C2 8 2 8 0.5 9.875 C0.005 10.24625 -0.49 10.6175 -1 11 C-2.32 10.34 -3.64 9.68 -5 9 C-4.67 7.68 -4.34 6.36 -4 5 C-4.66 5 -5.32 5 -6 5 C-6.33 6.65 -6.66 8.3 -7 10 C-7.66 10 -8.32 10 -9 10 C-9 7.03 -9 4.06 -9 1 C-5.98675805 -0.50662097 -3.31713623 -0.17770373 0 0 Z M-2 3 C-2 3.66 -2 4.32 -2 5 C-1.34 5 -0.68 5 0 5 C0 4.34 0 3.68 0 3 C-0.66 3 -1.32 3 -2 3 Z " fill="#FFFFFF" transform="translate(96,138)"/>
<path d="M0 0 C2.31 0.66 4.62 1.32 7 2 C6.5020163 5.73487777 6.12508244 7.81237635 4 11 C3.01 11 2.02 11 1 11 C0.67 10.34 0.34 9.68 0 9 C-0.99 9.495 -0.99 9.495 -2 10 C-2.66 9.67 -3.32 9.34 -4 9 C-2.94124926 5.59687262 -1.99097846 2.98646769 0 0 Z " fill="#FFFFFF" transform="translate(77,134)"/>
<path d="M0 0 C0.33 1.65 0.66 3.3 1 5 C1.66 5 2.32 5 3 5 C3 5.66 3 6.32 3 7 C1.71086513 7.67154933 0.41859796 8.33708859 -0.875 9 C-1.59429687 9.37125 -2.31359375 9.7425 -3.0546875 10.125 C-5 11 -5 11 -7 11 C-6.67 9.68 -6.34 8.36 -6 7 C-6.99 6.67 -7.98 6.34 -9 6 C-9 5.01 -9 4.02 -9 3 C-2.25 0 -2.25 0 0 0 Z " fill="#FFFFFF" transform="translate(57,107)"/>
<path d="M0 0 C3.63 0 7.26 0 11 0 C11 0.99 11 1.98 11 3 C9.68 3 8.36 3 7 3 C7 7.29 7 11.58 7 16 C6.01 16 5.02 16 4 16 C4 11.71 4 7.42 4 3 C2.68 2.67 1.36 2.34 0 2 C0 1.34 0 0.68 0 0 Z " fill="#FFFFFF" transform="translate(104,203)"/>
<path d="M0 0 C0.99 0 1.98 0 3 0 C7 5.25714286 7 5.25714286 7 8 C6.34 8 5.68 8 5 8 C5 8.66 5 9.32 5 10 C4.34 10 3.68 10 3 10 C3 10.66 3 11.32 3 12 C-1.04648443 10.65117186 -1.95502599 8.65173931 -4 5 C-3.67 4.01 -3.34 3.02 -3 2 C-2.34 2.33 -1.68 2.66 -1 3 C-0.67 2.01 -0.34 1.02 0 0 Z " fill="#FFFFFF" transform="translate(71,51)"/>
<path d="M0 0 C1.32 0 2.64 0 4 0 C4 5.28 4 10.56 4 16 C2.68 16 1.36 16 0 16 C0 10.72 0 5.44 0 0 Z " fill="#FFFFFF" transform="translate(173,203)"/>
<path d="M0 0 C1.9375 1.5 1.9375 1.5 2.8125 5 C2.85375 6.155 2.895 7.31 2.9375 8.5 C2.2775 9.16 1.6175 9.82 0.9375 10.5 C-2.59821429 9.96428571 -2.59821429 9.96428571 -4.0625 8.5 C-4.20365161 5.82941149 -4.10497107 3.17567762 -4.0625 0.5 C-2.0625 -0.5 -2.0625 -0.5 0 0 Z M-1.0625 5.5 C-0.0625 7.5 -0.0625 7.5 -0.0625 7.5 Z " fill="#FFFFFF" transform="translate(110.0625,137.5)"/>
<path d="M0 0 C0 0.66 0 1.32 0 2 C-1.98 2.99 -3.96 3.98 -6 5 C-5.67 5.66 -5.34 6.32 -5 7 C-4.21625 6.505 -3.4325 6.01 -2.625 5.5 C0 4 0 4 2 4 C0.85123314 7.44630058 -0.19140915 7.91620679 -3 10 C-3 10.66 -3 11.32 -3 12 C-3.99 12 -4.98 12 -6 12 C-9 6.375 -9 6.375 -9 3 C-3.375 0 -3.375 0 0 0 Z " fill="#FFFFFF" transform="translate(61,115)"/>
<path d="M0 0 C2.4375 0.8125 2.4375 0.8125 4.4375 2.8125 C4.0625 6.4375 4.0625 6.4375 3.4375 9.8125 C-0.37934226 8.25749019 -2.75445732 5.77654505 -5.5625 2.8125 C-3.70773038 0.37201366 -3.14722556 -0.2302848 0 0 Z M-2.5625 2.8125 C-1.2425 4.1325 0.0775 5.4525 1.4375 6.8125 C1.7675 5.8225 2.0975 4.8325 2.4375 3.8125 C0.7875 3.4825 -0.8625 3.1525 -2.5625 2.8125 Z " fill="#FFFFFF" transform="translate(59.5625,64.1875)"/>
<path d="M0 0 C0.66 0 1.32 0 2 0 C2.33 1.98 2.66 3.96 3 6 C-0.3 6.66 -3.6 7.32 -7 8 C-7.33 6.02 -7.66 4.04 -8 2 C-6.02 1.67 -4.04 1.34 -2 1 C-2 1.99 -2 2.98 -2 4 C-1.34 4 -0.68 4 0 4 C0 2.68 0 1.36 0 0 Z " fill="#FFFFFF" transform="translate(54,100)"/>
<path d="M0 0 C3.5625 0.125 3.5625 0.125 5.5625 1.125 C5.5625 3.105 5.5625 5.085 5.5625 7.125 C4.5725 7.125 3.5825 7.125 2.5625 7.125 C2.8925 5.805 3.2225 4.485 3.5625 3.125 C2.9025 3.125 2.2425 3.125 1.5625 3.125 C1.5625 4.115 1.5625 5.105 1.5625 6.125 C0.9025 6.125 0.2425 6.125 -0.4375 6.125 C-0.7675 5.465 -1.0975 4.805 -1.4375 4.125 C-1.7675 4.785 -2.0975 5.445 -2.4375 6.125 C-3.0975 6.125 -3.7575 6.125 -4.4375 6.125 C-4.480221 4.45888095 -4.47813832 2.79117115 -4.4375 1.125 C-3.4375 0.125 -3.4375 0.125 0 0 Z " fill="#FFFFFF" transform="translate(146.4375,99.875)"/>
<path d="M0 0 C3.69230769 0.69230769 3.69230769 0.69230769 5 2 C5.04092937 4.33297433 5.04241723 6.66705225 5 9 C3.35 9.33 1.7 9.66 0 10 C-0.9097643 6.92954549 -1.17299981 4.20049657 -1 1 C-0.67 0.67 -0.34 0.34 0 0 Z M1 3 C1.33 3.66 1.66 4.32 2 5 C2.33 4.34 2.66 3.68 3 3 C2.34 3 1.68 3 1 3 Z " fill="#FFFFFF" transform="translate(100,138)"/>
<path d="M0 0 C0.66 0 1.32 0 2 0 C2 1.32 2 2.64 2 4 C2.99 3.67 3.98 3.34 5 3 C3.8141763 6.37503669 2.72426311 8.64722731 0 11 C-1.32 10.34 -2.64 9.68 -4 9 C-3.4739075 5.21213403 -2.61896089 2.82847776 0 0 Z M-2 6 C-2 6.66 -2 7.32 -2 8 C-1.34 8 -0.68 8 0 8 C0 7.34 0 6.68 0 6 C-0.66 6 -1.32 6 -2 6 Z " fill="#FFFFFF" transform="translate(65,125)"/>
<path d="M0 0 C2.475 0.99 2.475 0.99 5 2 C5.33 4.31 5.66 6.62 6 9 C4.35 9.33 2.7 9.66 1 10 C0.67 9.01 0.34 8.02 0 7 C1.32 7.33 2.64 7.66 4 8 C3.67 6.35 3.34 4.7 3 3 C2.34 3 1.68 3 1 3 C0.67 3.99 0.34 4.98 0 6 C-0.66 6 -1.32 6 -2 6 C-1.125 1.125 -1.125 1.125 0 0 Z " fill="#FFFFFF" transform="translate(118,134)"/>
<path d="M0 0 C0.99 0 1.98 0 3 0 C3.33 0.66 3.66 1.32 4 2 C4.99 2 5.98 2 7 2 C5.50958227 5.79379058 3.30937488 7.68343758 0 10 C-0.66 10 -1.32 10 -2 10 C-1.54177532 6.53058454 -1.10868317 3.32604951 0 0 Z M1 4 C2 6 2 6 2 6 Z " fill="#FFFFFF" transform="translate(70,130)"/>
<path d="M0 0 C3.91211733 1.15585285 6.8745041 2.35534962 10 5 C9.34 6.32 8.68 7.64 8 9 C6.35 8.67 4.7 8.34 3 8 C2.87625 7.360625 2.7525 6.72125 2.625 6.0625 C2.315625 5.0415625 2.315625 5.0415625 2 4 C1.34 3.67 0.68 3.34 0 3 C0 2.01 0 1.02 0 0 Z M5 5 C5.33 5.66 5.66 6.32 6 7 C6.33 6.34 6.66 5.68 7 5 C6.34 5 5.68 5 5 5 Z " fill="#FFFFFF" transform="translate(140,110)"/>
<path d="M0 0 C3.3 0.33 6.6 0.66 10 1 C9.67 1.99 9.34 2.98 9 4 C8.65772583 5.33106622 8.32248257 6.66400079 8 8 C5.04987143 6.63029745 2.4347778 5.17390875 0 3 C0 2.01 0 1.02 0 0 Z " fill="#FFFFFF" transform="translate(51,73)"/>
<path d="M0 0 C0.99 0.33 1.98 0.66 3 1 C3 1.66 3 2.32 3 3 C3.66 3 4.32 3 5 3 C5 3.99 5 4.98 5 6 C5.99 6.33 6.98 6.66 8 7 C6.625 9 6.625 9 5 11 C4.34 11 3.68 11 3 11 C1.2856382 9.04072937 -0.38405168 7.04119788 -2 5 C-1.34 3.35 -0.68 1.7 0 0 Z " fill="#FFFFFF" transform="translate(63,57)"/>
<path d="M0 0 C-0.60990891 3.55780196 -1.5783681 6.6828589 -3 10 C-3.99 9.67 -4.98 9.34 -6 9 C-5.67 8.01 -5.34 7.02 -5 6 C-6.32 6 -7.64 6 -9 6 C-9 5.34 -9 4.68 -9 4 C-3.70588235 0 -3.70588235 0 0 0 Z " fill="#FFFFFF" transform="translate(132,54)"/>
<path d="M0 0 C0.66 0 1.32 0 2 0 C3.2890625 1.53125 3.2890625 1.53125 4.625 3.5 C5.07101563 4.1496875 5.51703125 4.799375 5.9765625 5.46875 C6.31429687 5.9740625 6.65203125 6.479375 7 7 C6.67 7.66 6.34 8.32 6 9 C5.34 9 4.68 9 4 9 C4 9.66 4 10.32 4 11 C3.34 11 2.68 11 2 11 C0.57741188 7.17679443 -0.24042276 4.08718695 0 0 Z M2 6 C2 6.66 2 7.32 2 8 C2.66 8 3.32 8 4 8 C4 7.34 4 6.68 4 6 C3.34 6 2.68 6 2 6 Z " fill="#FFFFFF" transform="translate(127,129)"/>
<path d="M0 0 C0.33 3.63 0.66 7.26 1 11 C0.34 11 -0.32 11 -1 11 C-3.17204 8.03812728 -4.83561997 5.49314009 -6 2 C-2.25 0 -2.25 0 0 0 Z " fill="#FFFFFF" transform="translate(81,47)"/>
<path d="M0 0 C3 1 3 1 4.6875 3.875 C6 7 6 7 6 10 C5.34 10 4.68 10 4 10 C0 3.375 0 3.375 0 0 Z " fill="#FFFFFF" transform="translate(122,132)"/>
<path d="M0 0 C2.62187494 1.04874998 3.79371361 1.64931313 5.25 4.125 C5.4975 4.74375 5.745 5.3625 6 6 C6.66 6 7.32 6 8 6 C7.67 6.99 7.34 7.98 7 9 C4.03595495 6.19195732 1.55500981 3.81684226 0 0 Z " fill="#FFFFFF" transform="translate(129,127)"/>
<path d="M0 0 C-0.54074373 3.78520613 -2.07572746 5.59177555 -5 8 C-5.99 8 -6.98 8 -8 8 C-6.48291727 4.46014029 -4.24676932 0 0 0 Z " fill="#FFFFFF" transform="translate(65,122)"/>
<path d="M0 0 C1.98 0 3.96 0 6 0 C6 1.32 6 2.64 6 4 C4.02 4 2.04 4 0 4 C0 2.68 0 1.36 0 0 Z " fill="#FFFFFF" transform="translate(162,211)"/>
<path d="M0 0 C1.98 0 3.96 0 6 0 C6 1.32 6 2.64 6 4 C4.02 4 2.04 4 0 4 C0 2.68 0 1.36 0 0 Z " fill="#FFFFFF" transform="translate(82,211)"/>
</svg>
